<svg preserveAspectRatio="none" width="100%" height="100%" overflow="visible" style="display: block;" viewBox="0 0 104 32" fill="none" xmlns="http://www.w3.org/2000/svg">
<g id="Brand">
<path id="c" d="M13.0306 4.84538C14.4316 4.84538 15.8326 4.99763 16.957 5.15436C18.0452 5.34692 19.6729 5.49917 19.9041 5.49917C20.6431 5.49917 20.956 5.38275 21.228 5.2708C21.4592 5.15437 21.6542 5.04241 22.0849 5.04241C23.9529 5.04241 24.1071 6.57838 24.4199 8.42334C24.7328 10.228 24.9232 12.3417 24.9232 13.1074C24.9232 14.4508 24.1841 14.9524 22.8602 14.9524C21.3459 14.9524 18.2809 9.46226 14.5449 9.46226C10.9268 9.46226 10.1107 15.033 10.1107 17.5676C10.1107 22.059 12.1737 27.3611 15.8643 27.3611C20.2985 27.3611 20.5298 23.2144 22.4748 23.2144C24.0708 23.2144 24.0708 24.6742 24.0708 25.8251C24.0708 27.7462 24.0708 30.1285 21.9308 31.0107C19.7545 31.9332 16.1908 31.7406 13.2981 31.7406C3.27352 31.7406 0 25.4803 0 18.799C0 11.8491 3.6181 4.85881 13.0261 4.85881L13.0306 4.84538Z" fill="var(--fill-0, #1D1D1B)"/>
<path id="h" d="M26.5899 7.14251C26.5899 6.14391 26.005 5.60654 25.3839 5.29755C24.799 5.02887 24.2549 4.80049 24.2549 3.80188C24.2549 1.80467 32.2664 0 33.5495 0C34.6014 0 35.1818 0.653806 35.1818 1.68824C35.1818 4.41538 34.9505 11.1817 34.9868 13.8686C36.7777 12.3729 39.0719 11.5265 41.2482 11.5265C43.8552 11.5265 48.6386 12.2565 48.6386 17.863C48.6386 21.2036 48.7564 22.856 48.7564 24.5084C48.7564 25.6235 48.7565 27.8132 49.8854 28.2745C50.5474 28.5432 50.8557 28.6954 50.8557 29.8105C50.8557 30.5001 50.5836 31.7316 49.8038 31.7316H39.7701C38.7591 31.7316 38.6049 30.5046 38.6049 29.7343C38.6049 28.4267 39.3439 28.888 39.5752 28.2745C40.0014 27.1998 40.0422 26.6221 40.0422 22.9725C40.0422 20.3976 40.0422 16.5599 36.6598 16.5599C35.8437 16.5599 35.1047 16.9808 35.1047 17.8675C35.1047 20.1737 35.1818 22.8202 35.1818 24.7055C35.1818 26.0131 35.2226 27.8939 36.1158 28.279C36.8956 28.6238 37.086 28.8925 37.086 29.8911C37.086 31.118 36.8911 31.736 35.5717 31.736H25.7738C24.4907 31.736 24.3728 31.2748 24.3728 30.1239C24.3728 28.7805 24.799 28.6641 25.6559 28.279C26.5899 27.858 26.5899 24.6293 26.5899 18.9467V7.147V7.14251Z" fill="var(--fill-0, #1D1D1B)"/>
<path id="o" d="M61.1614 11.5264C67.5407 11.5264 72.0474 14.8312 72.0474 21.4363C72.0474 28.1937 67.1099 32.0001 60.6128 32.0001C54.3151 32.0001 49.9988 28.7355 49.9988 22.323C49.9988 15.6014 54.433 11.5308 61.1569 11.5308L61.1614 11.5264ZM58.9443 20.0123C58.9443 26.6577 60.2274 28.1534 61.4697 28.1534C62.5216 28.1534 63.1019 26.9264 63.1019 23.5052C63.1019 16.8597 61.8188 15.3641 60.5357 15.3641C59.5246 15.3641 58.9397 16.591 58.9397 20.0123H58.9443Z" fill="var(--fill-0, #1D1D1B)"/>
<path id="i" d="M73.4318 16.6938C73.4318 16.0041 72.8469 15.7713 72.2665 15.4668C71.7225 15.1981 71.1376 15.0055 71.1376 13.9308C71.1376 12.6635 72.9648 12.162 75.1819 11.5127C77.476 10.823 80.7405 9.97668 81.2891 9.97668C81.7561 9.97668 82.0281 10.0931 82.0281 10.935V26.5052C82.0281 27.1948 82.7264 27.6964 83.5833 28.274C84.1274 28.6592 84.3223 28.7711 84.3223 29.6175C84.3223 31.1534 83.5833 31.7311 82.2594 31.7311H72.2257C71.4096 31.7311 71.0197 30.9609 71.0197 30.1951C71.0197 29.3891 71.0197 28.7756 71.8766 28.274C73.0826 27.5844 73.4318 27.159 73.4318 24.6647V16.6983V16.6938ZM78.7229 1.94303C80.4095 1.94303 82.0055 2.73118 82.0055 4.57167C82.0055 7.59436 77.8796 9.56919 75.2136 9.56919C73.4363 9.56919 72.593 8.9109 72.593 7.07042C72.593 4.4418 76.2337 1.94303 78.7184 1.94303H78.7229Z" fill="var(--fill-0, #1D1D1B)"/>
<path id="z" d="M92.2752 19.8606C92.9779 18.8396 93.3542 18.0604 93.3542 17.7738C93.3542 17.5275 91.4817 17.2186 89.8631 17.4066C87.8047 17.644 84.5493 18.6739 83.8873 18.6739C83.0984 18.6739 83.1392 17.6529 83.1392 17.12C83.1392 16.3006 83.5518 14.6661 84.3407 13.1928C85.0888 11.8001 85.5422 10.4925 86.9523 10.4925C88.9019 10.4925 99.2393 10.4925 101.184 10.4925C102.177 10.4925 102.798 10.7388 102.798 11.8449C102.798 12.0912 102.341 12.9107 101.597 14.0123L96.0429 22.2385C95.4625 23.1385 95.1316 23.8327 95.1316 24.1192C95.1316 24.4461 95.5033 24.5715 95.8797 24.5715C99.6927 24.5715 102.345 22.0773 102.966 22.0773C103.71 22.0773 104 22.8967 104 23.5505C104 23.9177 103.71 25.8836 103.007 27.9301C101.928 31.0826 101.806 31.7364 99.7743 31.7364H86.848C86.0591 31.7364 85.2339 31.6155 85.2339 30.6707C85.2339 30.3841 85.5649 29.6049 86.2269 28.6645L92.2752 19.8651V19.8606Z" fill="var(--fill-0, #1D1D1B)"/>
</g>
</svg>
