<svg width="78" height="24" viewBox="0 0 78 24" fill="none" xmlns="http://www.w3.org/2000/svg">
  <!-- C -->
  <path d="M9.77295 3.63C10.8237 3.63 11.8744 3.74419 12.7178 3.86174C13.5339 4.00616 14.7546 4.12035 14.9281 4.12035C15.4823 4.12035 15.717 4.03303 15.921 3.94907C16.0944 3.86174 16.2406 3.77778 16.5637 3.77778C17.9647 3.77778 18.0803 4.92975 18.3149 6.31348C18.5496 7.66697 18.6924 9.25221 18.6924 9.82652C18.6924 10.8341 18.1381 11.2102 17.1452 11.2102C16.0094 11.2102 13.7107 7.09266 10.9087 7.09266C8.19513 7.09266 7.58305 11.2707 7.58305 13.1716C7.58305 16.5403 9.13026 20.5168 11.8982 20.5168C15.2239 20.5168 15.3973 17.4068 16.8561 17.4068C18.0531 17.4068 18.0531 18.5016 18.0531 19.3648C18.0531 20.8056 18.0531 22.5924 16.4481 23.254C14.8158 23.9458 12.1431 23.8014 9.97358 23.8014C2.45514 23.8014 0 19.1062 0 14.0952C0 8.88277 2.71358 3.64008 9.76955 3.64008L9.77295 3.63Z" fill="#FCFCFD"/>
  <!-- h -->
  <path d="M26.19 0V9.8C26.19 9.8 27.5 8.64 29.5 8.64C32.5 8.64 34.19 11.14 34.19 14.14V23.8H29.69V15.14C29.69 13.64 28.69 12.64 27.19 12.64C25.69 12.64 26.19 13.14 26.19 14.64V23.8H21.69V0H26.19Z" fill="#FCFCFD"/>
  <!-- o -->
  <path d="M43.5 8.64C47.64 8.64 51 12 51 16.14C51 20.28 47.64 23.64 43.5 23.64C39.36 23.64 36 20.28 36 16.14C36 12 39.36 8.64 43.5 8.64ZM43.5 12.14C41.29 12.14 39.5 13.93 39.5 16.14C39.5 18.35 41.29 20.14 43.5 20.14C45.71 20.14 47.5 18.35 47.5 16.14C47.5 13.93 45.71 12.14 43.5 12.14Z" fill="#FCFCFD"/>
  <!-- i -->
  <path d="M55.26 1.46V5.5H59.26V1.46H55.26ZM55.26 9V23.8H59.26V9H55.26Z" fill="#FCFCFD"/>
  <!-- z -->
  <path d="M62.35 9H77V12.5L68 20H77V23.8H62.35V20.3L72.35 12.5H62.35V9Z" fill="#FCFCFD"/>
</svg>
