<svg width="1056" height="326" viewBox="0 0 1056 326" fill="none" xmlns="http://www.w3.org/2000/svg">
<path d="M132.311 49.2847C146.536 49.2847 160.762 50.8333 172.179 52.4276C183.228 54.3862 199.755 55.9348 202.103 55.9348C209.607 55.9348 212.784 54.7506 215.546 53.6119C217.894 52.4276 219.873 51.2888 224.247 51.2888C243.214 51.2888 244.779 66.9121 247.956 85.6783C251.133 104.035 253.066 125.534 253.066 133.323C253.066 146.987 245.562 152.089 232.119 152.089C216.743 152.089 185.622 96.2457 147.687 96.2457C110.95 96.2457 102.663 152.909 102.663 178.689C102.663 224.375 123.61 278.305 161.084 278.305C206.108 278.305 208.456 236.127 228.206 236.127C244.411 236.127 244.411 250.976 244.411 262.682C244.411 282.222 244.411 306.454 222.682 315.427C200.584 324.81 164.399 322.852 135.027 322.852C33.2388 322.852 0 259.174 0 191.215C0 120.523 36.7376 49.4213 132.265 49.4213L132.311 49.2847Z" fill="url(#paint0_linear_6940_5279)"/>
<path d="M269.99 72.6507C269.99 62.4933 264.052 57.0274 257.745 53.8845C251.806 51.1516 246.281 48.8286 246.281 38.6712C246.281 18.3563 327.629 0 340.657 0C351.338 0 357.231 6.65024 357.231 17.1721C357.231 44.9114 354.883 113.736 355.251 141.065C373.436 125.852 396.731 117.243 418.829 117.243C445.3 117.243 493.869 124.668 493.869 181.695C493.869 215.674 495.066 232.482 495.066 249.29C495.066 260.631 495.066 282.905 506.529 287.596C513.251 290.329 516.381 291.878 516.381 303.22C516.381 310.234 513.619 322.76 505.701 322.76H403.82C393.554 322.76 391.989 310.28 391.989 302.445C391.989 289.145 399.493 293.837 401.841 287.596C406.168 276.665 406.583 270.789 406.583 233.666C406.583 207.476 406.583 168.44 372.239 168.44C363.952 168.44 356.448 172.722 356.448 181.741C356.448 205.198 357.231 232.118 357.231 251.294C357.231 264.594 357.645 283.725 366.714 287.642C374.633 291.149 376.566 293.882 376.566 304.039C376.566 316.52 374.587 322.806 361.19 322.806H261.704C248.675 322.806 247.478 318.114 247.478 306.408C247.478 292.743 251.806 291.559 260.507 287.642C269.99 283.36 269.99 250.519 269.99 192.718V72.6963V72.6507Z" fill="url(#paint1_linear_6940_5279)"/>
<path d="M621.023 117.241C685.797 117.241 731.558 150.856 731.558 218.041C731.558 286.774 681.424 325.491 615.453 325.491C551.507 325.491 507.68 292.285 507.68 227.059C507.68 158.69 552.704 117.286 620.977 117.286L621.023 117.241ZM598.511 203.556C598.511 271.151 611.539 286.364 624.154 286.364C634.834 286.364 640.727 273.884 640.727 239.084C640.727 171.49 627.699 156.276 614.67 156.276C604.404 156.276 598.465 168.757 598.465 203.556H598.511Z" fill="url(#paint2_linear_6940_5279)"/>
<path d="M745.615 169.802C745.615 162.787 739.676 160.419 733.783 157.321C728.259 154.588 722.32 152.63 722.32 141.698C722.32 128.808 740.873 123.706 763.385 117.101C786.68 110.087 819.827 101.478 825.397 101.478C830.139 101.478 832.901 102.662 832.901 111.226V269.599C832.901 276.614 839.991 281.715 848.692 287.591C854.216 291.508 856.196 292.647 856.196 301.256C856.196 316.879 848.692 322.755 835.249 322.755H733.369C725.082 322.755 721.123 314.921 721.123 307.132C721.123 298.933 721.123 292.693 729.824 287.591C742.07 280.577 745.615 276.25 745.615 250.879V169.847V169.802ZM799.34 19.7632C816.466 19.7632 832.671 27.7799 832.671 46.5006C832.671 77.2461 790.777 97.3332 763.707 97.3332C745.661 97.3332 737.098 90.6375 737.098 71.9168C737.098 45.1796 774.066 19.7632 799.294 19.7632H799.34Z" fill="url(#paint3_linear_6940_5279)"/>
<path d="M936.948 202.014C944.084 191.629 947.905 183.703 947.905 180.788C947.905 178.283 928.892 175.14 912.456 177.053C891.556 179.467 858.501 189.944 851.78 189.944C843.769 189.944 844.183 179.558 844.183 174.138C844.183 165.803 848.373 149.177 856.383 134.192C863.979 120.026 868.583 106.726 882.901 106.726C902.697 106.726 1007.66 106.726 1027.41 106.726C1037.49 106.726 1043.8 109.231 1043.8 120.481C1043.8 122.987 1039.15 131.322 1031.6 142.527L975.205 226.2C969.312 235.356 965.952 242.416 965.952 245.331C965.952 248.656 969.727 249.932 973.548 249.932C1012.26 249.932 1039.2 224.561 1045.5 224.561C1053.05 224.561 1056 232.896 1056 239.546C1056 243.281 1053.05 263.277 1045.92 284.093C1034.96 316.16 1033.72 322.81 1013.09 322.81H881.842C873.831 322.81 865.453 321.58 865.453 311.969C865.453 309.054 868.813 301.129 875.535 291.563L936.948 202.06V202.014Z" fill="url(#paint4_linear_6940_5279)"/>
<defs>
<linearGradient id="paint0_linear_6940_5279" x1="126.533" y1="49.2847" x2="126.533" y2="323.022" gradientUnits="userSpaceOnUse">
<stop stop-color="#ECE5FF"/>
<stop offset="1" stop-color="#BBDEFB"/>
</linearGradient>
<linearGradient id="paint1_linear_6940_5279" x1="381.331" y1="0" x2="381.331" y2="322.806" gradientUnits="userSpaceOnUse">
<stop stop-color="#ECE5FF"/>
<stop offset="1" stop-color="#BBDEFB"/>
</linearGradient>
<linearGradient id="paint2_linear_6940_5279" x1="619.619" y1="117.241" x2="619.619" y2="325.491" gradientUnits="userSpaceOnUse">
<stop stop-color="#ECE5FF"/>
<stop offset="1" stop-color="#BBDEFB"/>
</linearGradient>
<linearGradient id="paint3_linear_6940_5279" x1="788.66" y1="19.7632" x2="788.66" y2="322.755" gradientUnits="userSpaceOnUse">
<stop stop-color="#ECE5FF"/>
<stop offset="1" stop-color="#BBDEFB"/>
</linearGradient>
<linearGradient id="paint4_linear_6940_5279" x1="950.09" y1="106.726" x2="950.09" y2="322.81" gradientUnits="userSpaceOnUse">
<stop stop-color="#ECE5FF"/>
<stop offset="1" stop-color="#BBDEFB"/>
</linearGradient>
</defs>
</svg>
