<svg width="552" height="378" viewBox="0 0 552 378" fill="none" xmlns="http://www.w3.org/2000/svg">
  <!-- Background card with rounded corners -->
  <rect x="0.5" y="0.5" width="551" height="377" rx="40" fill="white" stroke="#F4F4F4" stroke-width="1.7"/>

  <!-- Scalp/ground area -->
  <rect y="175" width="552" height="203" fill="#F7F7F7" fill-opacity="0.24"/>

  <!-- Hair strands and scalp line -->
  <g transform="translate(0, 21)">
    <!-- Scalp line with follicle holes -->
    <path d="M550.859 152.232H0V162.52H146.534C150.153 162.52 153.728 163.308 157.012 164.829C158.639 165.583 160.042 166.746 161.084 168.205L161.699 169.066C163.411 171.463 164.08 174.434 163.813 177.367C162.455 192.315 164.085 215.824 164.372 218.124C164.77 221.315 174.328 245.244 193.044 244.048C211.761 242.851 215.313 232.881 218.531 223.708C220.746 217.394 220.822 197.211 219.384 183.145C218.947 178.869 219.317 174.527 220.812 170.497C221.836 167.737 223.935 165.51 226.63 164.325L227.186 164.08C229.342 163.132 231.802 163.155 233.94 164.143C236.744 165.439 238.87 167.859 239.795 170.807L240.537 173.17C241.26 175.475 241.628 177.877 241.628 180.292V203.383C241.628 207.619 241.797 211.924 243.246 215.905C248.812 231.2 263.422 235.809 271.694 235.573C299.968 232.482 301.139 208.453 298.574 184.923L298 175.8C297.855 173.484 298.344 171.173 299.415 169.115C300.755 166.54 302.69 164.164 305.443 163.241C309.793 161.783 312.898 163.146 315.244 165.647C319.361 170.036 319.879 176.562 319.879 182.58V203.169C319.879 214.743 327.221 236.988 355.471 233.13C374.524 230.528 378.498 201.394 377.024 177.345C376.863 174.715 376.93 171.146 376.983 168.998C377.011 167.85 377.42 166.739 378.143 165.848C379.38 164.325 381.125 163.301 383.058 162.965L384.447 162.723C385.224 162.588 386.012 162.52 386.8 162.52H550.859V152.232Z" fill="#E8E8E8"/>

    <!-- Hair strand 1 - left -->
    <path d="M179.9 215.683L184.678 173.723C185.33 168 197.821 107.449 197.821 107.449C208.637 51.7783 248.655 11.9666 267.909 0C214.387 36.3916 201.14 124.05 200.609 162.35C199.334 185.879 202.467 207.709 204.193 215.683C206.171 223.151 202.294 232.675 194.753 234.356C190.356 235.336 186.792 233.188 184.678 231.761C177.498 226.963 179.581 218.673 179.9 215.683Z" fill="#42307D"/>

    <!-- Hair strand 2 - middle (tallest) -->
    <path d="M258.454 199.338L262.871 160.557C263.473 155.269 275.018 99.3063 275.018 99.3063C285.014 47.8543 321.999 11.0597 339.794 0C290.328 33.6337 278.085 114.649 277.594 150.047C276.416 171.793 279.311 191.968 280.906 199.338C282.735 206.24 279.151 215.042 272.182 216.596C268.119 217.502 264.825 215.516 262.871 214.197C256.235 209.763 258.16 202.101 258.454 199.338Z" fill="#42307D"/>

    <!-- Hair strand 3 - right (shorter, falling) -->
    <path d="M341.403 170.112L357.197 146.662C359.351 143.464 385.468 111.357 385.468 111.357C409.083 81.6311 445.15 70.3701 460.284 69.2229C417.249 74.27 382.314 122.248 370.173 144.839C362.151 158.423 357.273 172.363 355.836 177.635C354.706 182.684 349.462 187.14 344.465 185.807C341.548 185.029 340.093 182.647 339.278 181.144C336.493 176.07 340.29 171.79 341.403 170.112Z" fill="#42307D"/>
  </g>

  <!-- DHT Badge -->
  <circle cx="166" cy="320" r="28" fill="#352662"/>
  <text x="166" y="325" text-anchor="middle" fill="white" font-family="Arial, sans-serif" font-size="13" font-weight="bold" letter-spacing="3">DHT</text>

  <!-- Arrows -->
  <g transform="translate(214, 308)">
    <path d="M2 11.3067C1.06484 11.3067 0.306748 12.0648 0.306748 13C0.306748 13.9352 1.06484 14.6933 2 14.6933V13V11.3067ZM42.3598 14.1973C43.0211 13.5361 43.0211 12.4639 42.3598 11.8027L31.5841 1.0269C30.9228 0.365647 29.8507 0.365647 29.1894 1.0269C28.5282 1.68816 28.5282 2.76027 29.1894 3.42152L38.7679 13L29.1894 22.5785C28.5282 23.2397 28.5282 24.3118 29.1894 24.9731C29.8507 25.6344 30.9228 25.6344 31.5841 24.9731L42.3598 14.1973ZM2 13V14.6933H41.1625V13V11.3067H2V13Z" fill="#9B84D0"/>
  </g>
  <g transform="translate(283, 308)">
    <path d="M2 11.3067C1.06484 11.3067 0.306748 12.0648 0.306748 13C0.306748 13.9352 1.06484 14.6933 2 14.6933V13V11.3067ZM42.3598 14.1973C43.0211 13.5361 43.0211 12.4639 42.3598 11.8027L31.5841 1.0269C30.9228 0.365647 29.8507 0.365647 29.1894 1.0269C28.5282 1.68816 28.5282 2.76027 29.1894 3.42152L38.7679 13L29.1894 22.5785C28.5282 23.2397 28.5282 24.3118 29.1894 24.9731C29.8507 25.6344 30.9228 25.6344 31.5841 24.9731L42.3598 14.1973ZM2 13V14.6933H41.1625V13V11.3067H2V13Z" fill="#9B84D0"/>
  </g>
  <g transform="translate(352, 308)">
    <path d="M2 11.3067C1.06484 11.3067 0.306748 12.0648 0.306748 13C0.306748 13.9352 1.06484 14.6933 2 14.6933V13V11.3067ZM42.3598 14.1973C43.0211 13.5361 43.0211 12.4639 42.3598 11.8027L31.5841 1.0269C30.9228 0.365647 29.8507 0.365647 29.1894 1.0269C28.5282 1.68816 28.5282 2.76027 29.1894 3.42152L38.7679 13L29.1894 22.5785C28.5282 23.2397 28.5282 24.3118 29.1894 24.9731C29.8507 25.6344 30.9228 25.6344 31.5841 24.9731L42.3598 14.1973ZM2 13V14.6933H41.1625V13V11.3067H2V13Z" fill="#9B84D0"/>
  </g>
</svg>
