<svg width="84" height="85" viewBox="0 0 84 85" fill="none" xmlns="http://www.w3.org/2000/svg">
<rect width="80" height="79" rx="39.5" fill="#F4F4F4"/>
<path d="M34.1304 38.2308C32.4008 38.2308 30.7419 37.5622 29.5189 36.372C28.2958 35.1819 27.6087 33.5677 27.6087 31.8846V26.8077C27.6087 26.4711 27.7461 26.1482 27.9907 25.9102C28.2353 25.6722 28.5671 25.5385 28.913 25.5385H30.2174C30.5633 25.5385 30.8951 25.4047 31.1397 25.1667C31.3843 24.9287 31.5217 24.6059 31.5217 24.2692C31.5217 23.9326 31.3843 23.6098 31.1397 23.3717C30.8951 23.1337 30.5633 23 30.2174 23H28.913C27.8752 23 26.8799 23.4012 26.1461 24.1152C25.4123 24.8293 25 25.7978 25 26.8077V31.8846C25.0017 33.3185 25.361 34.7306 26.0471 35.9996C26.7333 37.2685 27.7257 38.3565 28.9391 39.17C30.1062 40.1692 31.0525 41.3887 31.7206 42.7545C32.3888 44.1203 32.7649 45.6039 32.8261 47.1154C32.8261 49.4717 33.788 51.7316 35.5003 53.3978C37.2126 55.0639 39.535 56 41.9565 56C44.3781 56 46.7004 55.0639 48.4127 53.3978C50.125 51.7316 51.0869 49.4717 51.0869 47.1154V45.6685C52.3165 45.3595 53.3881 44.6249 54.1008 43.6021C54.8135 42.5794 55.1184 41.3389 54.9584 40.113C54.7984 38.8872 54.1844 37.7602 53.2316 36.9434C52.2788 36.1265 51.0525 35.6758 49.7826 35.6758C48.5127 35.6758 47.2864 36.1265 46.3336 36.9434C45.3808 37.7602 44.7668 38.8872 44.6068 40.113C44.4468 41.3389 44.7517 42.5794 45.4644 43.6021C46.1771 44.6249 47.2487 45.3595 48.4783 45.6685V47.1154C48.4783 48.7985 47.7911 50.4127 46.5681 51.6028C45.345 52.7929 43.6862 53.4615 41.9565 53.4615C40.2268 53.4615 38.568 52.7929 37.345 51.6028C36.1219 50.4127 35.4348 48.7985 35.4348 47.1154C35.4993 45.602 35.8795 44.1173 36.5522 42.7514C37.2249 41.3855 38.176 40.167 39.3478 39.17C40.5565 38.3537 41.5438 37.2645 42.2253 35.9957C42.9068 34.7269 43.2621 33.3163 43.2609 31.8846V26.8077C43.2609 25.7978 42.8486 24.8293 42.1148 24.1152C41.3809 23.4012 40.3856 23 39.3478 23H38.0435C37.6975 23 37.3658 23.1337 37.1212 23.3717C36.8765 23.6098 36.7391 23.9326 36.7391 24.2692C36.7391 24.6059 36.8765 24.9287 37.1212 25.1667C37.3658 25.4047 37.6975 25.5385 38.0435 25.5385H39.3478C39.6938 25.5385 40.0255 25.6722 40.2701 25.9102C40.5147 26.1482 40.6522 26.4711 40.6522 26.8077V31.8846C40.6522 32.718 40.4835 33.5432 40.1557 34.3132C39.828 35.0831 39.3476 35.7827 38.742 36.372C38.1364 36.9613 37.4174 37.4288 36.6262 37.7477C35.8349 38.0666 34.9869 38.2308 34.1304 38.2308ZM49.7826 43.3077C49.0907 43.3077 48.4272 43.0402 47.938 42.5642C47.4487 42.0881 47.1739 41.4425 47.1739 40.7692C47.1739 40.096 47.4487 39.4503 47.938 38.9743C48.4272 38.4982 49.0907 38.2308 49.7826 38.2308C50.4745 38.2308 51.138 38.4982 51.6272 38.9743C52.1164 39.4503 52.3913 40.096 52.3913 40.7692C52.3913 41.4425 52.1164 42.0881 51.6272 42.5642C51.138 43.0402 50.4745 43.3077 49.7826 43.3077Z" fill="#B1B1B1"/>
<rect x="49" y="50" width="34" height="34" rx="17" fill="#FFFAEB"/>
<rect x="49" y="50" width="34" height="34" rx="17" stroke="white" stroke-width="2"/>
<path d="M66 62.8333V66.485C66 66.8006 66.1783 67.0892 66.4607 67.2303L68.5 68.25M73.5 67C73.5 62.8579 70.1421 59.5 66 59.5C61.8579 59.5 58.5 62.8579 58.5 67C58.5 71.1421 61.8579 74.5 66 74.5C70.1421 74.5 73.5 71.1421 73.5 67Z" stroke="#DC6803" stroke-width="1.5" stroke-linecap="round" stroke-linejoin="round"/>
</svg>
