<svg width="72" height="110" viewBox="0 0 72 110" fill="none" xmlns="http://www.w3.org/2000/svg">
  <!-- Hair - full front, thinning at crown only -->
  <path d="M1.4 45C2.8 54 4.8 68 5.6 74C6.4 68 6.9 57 7.4 54C8 50 10.8 40 13.4 36C14.8 34 22.4 28 24.8 37C27.2 46 33.3 50 38.7 50C43 50 45.7 49 46.5 48C54.3 45 57.3 32 59.1 32C60.9 32 65.1 32 67.5 43C69.4 52 69.1 66 68.7 72C72.3 66 74.1 45 72.9 28C72 13 60.9 9 55.5 9C54.1 12 48.8 17 38.7 18C28.6 19 21.6 12 19.4 9C17.6 9 13.1 10 9.2 14C4.4 20 -0.4 33 1.4 45Z" fill="#1D1D1B" stroke="#1D1D1B" stroke-width="1.7"/>
  <!-- Hairline top -->
  <path d="M27 8Q36 5 45 8" stroke="#1D1D1B" stroke-width="1.7" fill="none"/>
  <!-- Face outline -->
  <ellipse cx="36" cy="75" rx="30" ry="34" stroke="#1D1D1B" stroke-width="1.7" fill="none"/>
  <!-- Left ear -->
  <ellipse cx="6" cy="75" rx="5" ry="7" stroke="#1D1D1B" stroke-width="1.7" fill="none"/>
  <!-- Right ear -->
  <ellipse cx="66" cy="75" rx="5" ry="7" stroke="#1D1D1B" stroke-width="1.7" fill="none"/>
  <!-- Left eyebrow -->
  <path d="M20 68Q26 65 32 68" stroke="#1D1D1B" stroke-width="1.5" fill="none"/>
  <!-- Right eyebrow -->
  <path d="M40 68Q46 65 52 68" stroke="#1D1D1B" stroke-width="1.5" fill="none"/>
  <!-- Left eye -->
  <circle cx="26" cy="76" r="2" fill="#1D1D1B"/>
  <!-- Right eye -->
  <circle cx="46" cy="76" r="2" fill="#1D1D1B"/>
  <!-- Nose -->
  <path d="M36 80L36 88" stroke="#1D1D1B" stroke-width="1.5" fill="none"/>
  <path d="M33 88Q36 91 39 88" stroke="#1D1D1B" stroke-width="1.5" fill="none"/>
  <!-- Mouth -->
  <path d="M30 98Q36 102 42 98" stroke="#1D1D1B" stroke-width="1.5" fill="none"/>
</svg>
